<svg width="300" height="200" xmlns="http://www.w3.org/2000/svg">
  <rect width="100%" height="100%" fill="#fffde7" />
  
  <!-- Mãos em concha -->
  <path d="M100,120 C80,90 120,90 100,120" stroke="#8bc34a" stroke-width="4" fill="none" />
  <path d="M200,120 C220,90 180,90 200,120" stroke="#8bc34a" stroke-width="4" fill="none" />
  
  <!-- Figuras de pessoas -->
  <circle cx="120" cy="110" r="10" fill="#4f4f4f" />
  <line x1="120" y1="120" x2="120" y2="140" stroke="#4f4f4f" stroke-width="4" />
  <line x1="110" y1="130" x2="130" y2="130" stroke="#4f4f4f" stroke-width="4" />
  <line x1="120" y1="140" x2="110" y2="160" stroke="#4f4f4f" stroke-width="4" />
  <line x1="120" y1="140" x2="130" y2="160" stroke="#4f4f4f" stroke-width="4" />
  
  <circle cx="180" cy="110" r="10" fill="#4f4f4f" />
  <line x1="180" y1="120" x2="180" y2="140" stroke="#4f4f4f" stroke-width="4" />
  <line x1="170" y1="130" x2="190" y2="130" stroke="#4f4f4f" stroke-width="4" />
  <line x1="180" y1="140" x2="170" y2="160" stroke="#4f4f4f" stroke-width="4" />
  <line x1="180" y1="140" x2="190" y2="160" stroke="#4f4f4f" stroke-width="4" />
  
  <!-- Título -->
  <text x="150" y="50" font-family="Arial" font-size="18" font-weight="bold" text-anchor="middle" fill="#2e7d32">Dia do Assistente Social</text>
  <text x="150" y="180" font-family="Arial" font-size="14" text-anchor="middle" fill="#4f4f4f">15 de Maio</text>
</svg> 