<svg width="300" height="200" xmlns="http://www.w3.org/2000/svg">
  <rect width="100%" height="100%" fill="#e0f7fa" />
  
  <!-- Mochila escolar -->
  <rect x="120" y="50" width="60" height="70" rx="5" fill="#4CAF50" />
  <rect x="130" y="40" width="40" height="10" rx="3" fill="#388E3C" />
  <rect x="135" y="60" width="30" height="20" rx="3" fill="#81C784" />
  
  <!-- Bola -->
  <circle cx="210" cy="75" r="20" fill="#F44336" />
  <path d="M195,65 L225,85 M195,85 L225,65 M190,75 L230,75" stroke="white" stroke-width="2" />
  
  <!-- Correntes sendo quebradas -->
  <circle cx="100" cy="130" r="8" fill="#9E9E9E" />
  <circle cx="120" cy="130" r="8" fill="#9E9E9E" />
  <circle cx="140" cy="130" r="8" fill="#9E9E9E" />
  <line x1="108" y1="130" x2="112" y2="130" stroke="#9E9E9E" stroke-width="4" />
  <line x1="128" y1="130" x2="132" y2="130" stroke="#9E9E9E" stroke-width="4" />
  
  <circle cx="160" cy="130" r="8" fill="#9E9E9E" />
  <circle cx="180" cy="130" r="8" fill="#9E9E9E" />
  <circle cx="200" cy="130" r="8" fill="#9E9E9E" />
  <line x1="168" y1="130" x2="172" y2="130" stroke="#9E9E9E" stroke-width="4" />
  
  <!-- Símbolo de quebra -->
  <line x1="145" y1="115" x2="155" y2="145" stroke="#F44336" stroke-width="6" />
  <line x1="155" y1="115" x2="145" y2="145" stroke="#F44336" stroke-width="6" />
  
  <!-- Título -->
  <text x="150" y="170" font-family="Arial" font-size="14" font-weight="bold" text-anchor="middle" fill="#2e7d32">Dia Mundial Contra o Trabalho Infantil</text>
  <text x="150" y="190" font-family="Arial" font-size="14" text-anchor="middle" fill="#4f4f4f">12 de Junho</text>
</svg> 