<svg width="300" height="200" xmlns="http://www.w3.org/2000/svg">
  <rect width="100%" height="100%" fill="#e3f2fd" />
  
  <!-- Coração com as cores da bandeira trans -->
  <path d="M150,60 C180,30 240,60 150,120 C60,60 120,30 150,60 Z" fill="white" stroke="#4f4f4f" stroke-width="2" />
  
  <!-- Listras coloridas da bandeira trans -->
  <path d="M150,65 C172,45 210,65 150,105 C90,65 128,45 150,65 Z" fill="#55CDFC" /> <!-- Azul claro -->
  <path d="M150,75 C165,60 195,75 150,100 C105,75 135,60 150,75 Z" fill="#F7A8B8" /> <!-- Rosa claro -->
  <path d="M150,85 C160,75 180,85 150,95 C120,85 140,75 150,85 Z" fill="white" /> <!-- Branco -->
  
  <!-- Título -->
  <text x="150" y="150" font-family="Arial" font-size="16" font-weight="bold" text-anchor="middle" fill="#2e7d32">Dia Nacional da</text>
  <text x="150" y="170" font-family="Arial" font-size="16" font-weight="bold" text-anchor="middle" fill="#2e7d32">Visibilidade Trans</text>
  <text x="150" y="190" font-family="Arial" font-size="14" text-anchor="middle" fill="#4f4f4f">29 de Janeiro</text>
</svg> 